<svg height="569pt" viewBox="-76 0 569 569.285" width="569pt" xmlns="http://www.w3.org/2000/svg"><path d="m.105469 47.417969v474.164062c.03125 26.175781 21.242187 47.386719 47.414062 47.417969h322.433594c26.175781-.03125 47.386719-21.242188 47.417969-47.417969v-474.164062c-.03125-26.175781-21.242188-47.386719-47.417969-47.417969h-322.433594c-26.171875.03125-47.382812 21.242188-47.414062 47.417969zm18.964843 0c0-15.714844 12.738282-28.453125 28.449219-28.453125h322.433594c15.710937 0 28.449219 12.738281 28.449219 28.453125v474.164062c0 15.714844-12.738282 28.449219-28.449219 28.449219h-322.433594c-15.710937 0-28.449219-12.734375-28.449219-28.449219zm0 0"/><path d="m57.003906 180.183594h303.464844c5.238281 0 9.484375-4.246094 9.484375-9.484375v-104.316407c0-5.238281-4.246094-9.480468-9.484375-9.480468h-303.464844c-5.238281 0-9.484375 4.242187-9.484375 9.480468v104.316407c0 5.238281 4.246094 9.484375 9.484375 9.484375zm9.484375-104.316406h284.5v85.351562h-284.5zm0 0"/><path d="m246.671875 199.148438h-75.867187c-5.238282 0-9.484376 4.246093-9.484376 9.484374v75.867188c0 5.238281 4.246094 9.484375 9.484376 9.484375h75.867187c5.234375 0 9.480469-4.246094 9.480469-9.484375v-75.867188c0-5.238281-4.242188-9.484374-9.480469-9.484374zm-9.484375 75.867187h-56.902344v-56.898437h56.902344zm0 0"/><path d="m360.472656 199.148438h-75.867187c-5.238281 0-9.484375 4.246093-9.484375 9.484374v75.867188c0 5.238281 4.246094 9.484375 9.484375 9.484375h75.867187c5.234375 0 9.480469-4.246094 9.480469-9.484375v-75.867188c0-5.238281-4.246094-9.484374-9.480469-9.484374zm-9.484375 75.867187h-56.902343v-56.898437h56.902343zm0 0"/><path d="m57.003906 293.984375h75.867188c5.238281 0 9.484375-4.246094 9.484375-9.484375v-75.867188c0-5.238281-4.246094-9.484374-9.484375-9.484374h-75.867188c-5.238281 0-9.484375 4.246093-9.484375 9.484374v75.867188c0 5.238281 4.246094 9.484375 9.484375 9.484375zm9.484375-75.867187h56.898438v56.898437h-56.898438zm0 0"/><path d="m246.671875 312.949219h-75.867187c-5.238282 0-9.484376 4.246093-9.484376 9.484375v75.867187c0 5.238281 4.246094 9.480469 9.484376 9.480469h75.867187c5.234375 0 9.480469-4.242188 9.480469-9.480469v-75.867187c0-5.238282-4.242188-9.484375-9.480469-9.484375zm-9.484375 75.867187h-56.902344v-56.898437h56.902344zm0 0"/><path d="m360.472656 312.949219h-75.867187c-5.238281 0-9.484375 4.246093-9.484375 9.484375v189.664062c0 5.238282 4.246094 9.484375 9.484375 9.484375h75.867187c5.234375 0 9.480469-4.246093 9.480469-9.484375v-189.664062c0-5.238282-4.246094-9.484375-9.480469-9.484375zm-9.484375 189.667969h-56.902343v-170.699219h56.902343zm0 0"/><path d="m57.003906 407.78125h75.867188c5.238281 0 9.484375-4.242188 9.484375-9.480469v-75.867187c0-5.238282-4.246094-9.484375-9.484375-9.484375h-75.867188c-5.238281 0-9.484375 4.246093-9.484375 9.484375v75.867187c0 5.238281 4.246094 9.480469 9.484375 9.480469zm9.484375-75.863281h56.898438v56.898437h-56.898438zm0 0"/><path d="m246.671875 426.75h-75.867187c-5.238282 0-9.484376 4.246094-9.484376 9.484375v75.863281c0 5.238282 4.246094 9.484375 9.484376 9.484375h75.867187c5.234375 0 9.480469-4.246093 9.480469-9.484375v-75.863281c0-5.238281-4.242188-9.484375-9.480469-9.484375zm-9.484375 75.867188h-56.902344v-56.902344h56.902344zm0 0"/><path d="m57.003906 521.582031h75.867188c5.238281 0 9.484375-4.246093 9.484375-9.484375v-75.863281c0-5.238281-4.246094-9.484375-9.484375-9.484375h-75.867188c-5.238281 0-9.484375 4.246094-9.484375 9.484375v75.863281c0 5.238282 4.246094 9.484375 9.484375 9.484375zm9.484375-75.863281h56.898438v56.898438h-56.898438zm0 0"/><path d="m313.054688 123.28125h18.964843v18.96875h-18.964843zm0 0"/><path d="m275.121094 123.28125h18.964844v18.96875h-18.964844zm0 0"/><path d="m237.1875 123.28125h18.964844v18.96875h-18.964844zm0 0"/></svg>